<svg width="88" height="20" viewBox="0 0 88 20" fill="none" xmlns="http://www.w3.org/2000/svg">
<path d="M4.99178 9.53645C4.25805 9.53645 3.54519 9.69446 2.87231 10.0037V0.25315C2.87231 0.113833 2.75582 0 2.61325 0H0.259065C0.116492 0 0 0.113833 0 0.25315V14.4143C0 17.1038 2.23943 19.2921 4.99178 19.2921C7.74412 19.2921 9.98355 17.1038 9.98355 14.4143C9.98355 11.7248 7.74412 9.53645 4.99178 9.53645ZM4.99178 16.4853C3.82338 16.4853 2.87231 15.556 2.87231 14.4143C2.87231 13.2725 3.82338 12.3432 4.99178 12.3432C6.16018 12.3432 7.11124 13.2725 7.11124 14.4143C7.11124 15.556 6.16018 16.4853 4.99178 16.4853Z" fill="#B5B5B5" style="fill:#B5B5B5;fill:color(display-p3 0.7117 0.7117 0.7117);fill-opacity:1;"/>
<path d="M44.2379 9.53645C43.5041 9.53645 42.7913 9.69446 42.1184 10.0037V0.25315C42.1184 0.113833 42.0019 0 41.8593 0H39.5052C39.3626 0 39.2461 0.113833 39.2461 0.25315V14.4143C39.2461 17.1038 41.4855 19.2921 44.2379 19.2921C46.9902 19.2921 49.2296 17.1038 49.2296 14.4143C49.2296 11.7248 46.9902 9.53645 44.2379 9.53645ZM44.2379 16.4853C43.0695 16.4853 42.1184 15.556 42.1184 14.4143C42.1184 13.2725 43.0695 12.3432 44.2379 12.3432C45.4063 12.3432 46.3573 13.2725 46.3573 14.4143C46.3573 15.556 45.4063 16.4853 44.2379 16.4853Z" fill="#B5B5B5" style="fill:#B5B5B5;fill:color(display-p3 0.7117 0.7117 0.7117);fill-opacity:1;"/>
<path d="M87.6173 0.000244141H85.263C85.1199 0.000244141 85.0039 0.113583 85.0039 0.253394V19.0426C85.0039 19.1824 85.1199 19.2957 85.263 19.2957H87.6173C87.7603 19.2957 87.8763 19.1824 87.8763 19.0426V0.253394C87.8763 0.113583 87.7603 0.000244141 87.6173 0.000244141Z" fill="#B5B5B5" style="fill:#B5B5B5;fill:color(display-p3 0.7117 0.7117 0.7117);fill-opacity:1;"/>
<path d="M18.0216 12.4435C17.307 10.7513 15.6344 9.65881 13.7619 9.65881C13.195 9.65881 12.6039 9.77265 12.0562 9.98672C11.9571 10.0258 11.8928 10.1192 11.8928 10.2229V12.7646C11.8928 12.8529 11.9397 12.9345 12.0145 12.9803C12.091 13.0262 12.1866 13.0313 12.2666 12.9922L12.9968 12.6422C13.2316 12.5284 13.4976 12.469 13.7619 12.469C14.4678 12.469 15.0972 12.8801 15.3667 13.5172L15.4866 13.801L15.1163 13.7908C14.7251 13.7789 14.3339 13.767 13.9531 13.767C13.2385 13.767 12.6978 13.8095 12.2266 13.9046C11.4946 14.1187 10.8861 14.6573 10.5575 15.3827C10.2236 16.1201 10.2254 16.9373 10.5644 17.6288C11.1364 18.728 12.1153 19.2836 13.4732 19.2836C14.6173 19.2836 15.9804 18.8742 17.3157 18.13L17.7435 19.1443C17.7834 19.2394 17.8791 19.3006 17.9834 19.3006H20.5288C20.6158 19.3006 20.6958 19.2581 20.7444 19.1885C20.7931 19.1188 20.8018 19.0288 20.7688 18.9506L18.0199 12.4435H18.0216ZM12.9273 15.8924C13.0473 15.8449 13.0977 15.8432 13.2663 15.8415C13.9288 15.8296 14.5912 15.8228 15.2537 15.8228C15.3858 15.8228 15.6918 15.8245 15.9943 15.8262C15.1041 16.4531 14.1131 16.8099 13.1185 16.8592L13.0507 16.8625C12.8299 16.8625 12.6595 16.7113 12.6143 16.4769C12.5656 16.2203 12.6926 15.9791 12.9273 15.8907V15.8924Z" fill="#B5B5B5" style="fill:#B5B5B5;fill:color(display-p3 0.7117 0.7117 0.7117);fill-opacity:1;"/>
<path d="M30.5234 9.86441C29.974 9.65033 29.3829 9.5365 28.8178 9.5365C26.9452 9.5365 25.2726 10.629 24.558 12.3212L24.3215 12.8801V9.85251C24.3215 9.71319 24.205 9.59936 24.0625 9.59936H21.7083C21.5657 9.59936 21.4492 9.71319 21.4492 9.85251V19.0458C21.4492 19.1851 21.5657 19.2989 21.7083 19.2989H24.5441C24.6484 19.2989 24.744 19.2361 24.784 19.1426L27.213 13.3915C27.4825 12.7544 28.1119 12.3432 28.8178 12.3432C29.0821 12.3432 29.3463 12.4044 29.5845 12.5182L30.3131 12.8682C30.393 12.9073 30.4887 12.9022 30.5652 12.8563C30.6417 12.8105 30.6869 12.7289 30.6869 12.6406V10.1006C30.6869 9.99693 30.6225 9.90348 30.5234 9.86441Z" fill="#B5B5B5" style="fill:#B5B5B5;fill:color(display-p3 0.7117 0.7117 0.7117);fill-opacity:1;"/>
<path d="M81.2031 12.4435C80.4885 10.7513 78.8159 9.65881 76.9433 9.65881C76.3765 9.65881 75.7853 9.77265 75.2376 9.98672C75.1385 10.0258 75.0742 10.1192 75.0742 10.2229V12.7646C75.0742 12.8529 75.1211 12.9345 75.1959 12.9803C75.2724 13.0262 75.368 13.0313 75.448 12.9922L76.1765 12.6422C76.413 12.5284 76.679 12.469 76.9415 12.469C77.6475 12.469 78.2769 12.8801 78.5464 13.5172L78.6663 13.7993C78.6663 13.7993 76.4512 13.5291 75.4063 13.9046C74.6899 14.1628 74.0658 14.6573 73.7371 15.3827C73.4033 16.1201 73.4051 16.9373 73.7441 17.6288C74.3161 18.728 75.295 19.2836 76.6512 19.2836C77.7952 19.2836 79.1584 18.8742 80.4937 18.13L80.9214 19.1443C80.9614 19.2394 81.057 19.3006 81.1613 19.3006H83.7068C83.7937 19.3006 83.8737 19.2581 83.9224 19.1885C83.9711 19.1188 83.9798 19.0288 83.9467 18.9506L81.1979 12.4435H81.2031ZM76.1087 15.8924C76.2287 15.8449 76.2791 15.8432 76.4478 15.8415C77.0789 15.8296 77.71 15.8245 78.3412 15.8245C78.4925 15.8245 78.8419 15.8279 79.174 15.8296C78.2838 16.4565 77.2945 16.8116 76.3 16.8609L76.2322 16.8642C76.0113 16.8642 75.841 16.713 75.7958 16.4786C75.7471 16.222 75.874 15.9808 76.1105 15.8924H76.1087Z" fill="#B5B5B5" style="fill:#B5B5B5;fill:color(display-p3 0.7117 0.7117 0.7117);fill-opacity:1;"/>
<path d="M59.2678 9.86441C58.7184 9.65033 58.1272 9.5365 57.5621 9.5365C55.6896 9.5365 54.017 10.629 53.3023 12.3212L53.0676 12.8784V9.85251C53.0676 9.71319 52.9511 9.59936 52.8086 9.59936H50.4544C50.3118 9.59936 50.1953 9.71319 50.1953 9.85251V19.0458C50.1953 19.1851 50.3118 19.2989 50.4544 19.2989H53.2884C53.3928 19.2989 53.4884 19.2361 53.5284 19.1426L55.9573 13.3915C56.2268 12.7544 56.8562 12.3432 57.5621 12.3432C57.8247 12.3432 58.0907 12.4044 58.3289 12.5182L59.0592 12.8682C59.1391 12.9073 59.233 12.9022 59.3113 12.8563C59.3878 12.8105 59.433 12.7289 59.433 12.6406V10.1006C59.433 9.99693 59.3686 9.90348 59.2695 9.86441H59.2678Z" fill="#B5B5B5" style="fill:#B5B5B5;fill:color(display-p3 0.7117 0.7117 0.7117);fill-opacity:1;"/>
<path d="M63.0118 9.6571H60.6575C60.5144 9.6571 60.3984 9.77044 60.3984 9.91025V19.0424C60.3984 19.1822 60.5144 19.2955 60.6575 19.2955H63.0118C63.1549 19.2955 63.2709 19.1822 63.2709 19.0424V9.91025C63.2709 9.77044 63.1549 9.6571 63.0118 9.6571Z" fill="#B5B5B5" style="fill:#B5B5B5;fill:color(display-p3 0.7117 0.7117 0.7117);fill-opacity:1;"/>
<path d="M69.8834 13.254L67.3866 13.2914C67.2388 13.2914 67.0928 13.2217 66.9972 13.1079C66.8546 12.9329 66.825 12.7222 66.9189 12.5336C67.0215 12.3229 67.2545 12.187 67.5309 12.1819C67.5588 12.1904 67.5866 12.1921 67.6179 12.1955C68.103 12.1853 68.8141 12.1751 69.5635 12.1649L70.0538 12.1581C70.8449 12.1462 71.6325 12.136 72.208 12.1241C72.3488 12.1207 72.4619 12.0086 72.4619 11.871V10.3079C72.4619 10.1703 72.3488 10.0565 72.2063 10.0548L67.9882 9.98851C66.8528 9.90356 65.9261 10.206 65.2932 10.8567C64.7942 11.3698 64.5195 12.0613 64.5195 12.8054C64.5195 14.2037 65.5123 15.7107 67.6926 15.7107C67.8057 15.7107 67.9221 15.7056 68.0386 15.6971L69.8834 15.726C70.1042 15.726 70.2763 15.8772 70.3128 16.0998C70.3459 16.3054 70.2502 16.4821 70.0433 16.5517C70.019 16.5636 69.8486 16.5755 69.4209 16.5602C69.3287 16.5568 69.2401 16.5381 69.1723 16.5534L69.1027 16.5568L64.8864 16.4906C64.8186 16.4906 64.749 16.516 64.7004 16.5636C64.6517 16.6112 64.6221 16.6758 64.6221 16.7437V19.0374C64.6221 19.1053 64.6499 19.1699 64.7004 19.2175C64.749 19.265 64.8151 19.2905 64.8829 19.2905H64.8864L69.4087 19.2208C69.9634 19.2158 70.5371 19.2124 71.0709 18.9728C72.6514 18.3136 73.1069 16.8151 72.8565 15.6224C72.627 14.5299 71.7125 13.254 69.8816 13.254H69.8834Z" fill="#B5B5B5" style="fill:#B5B5B5;fill:color(display-p3 0.7117 0.7117 0.7117);fill-opacity:1;"/>
</svg>
