<?xml version="1.0" encoding="UTF-8"?>
<svg id="Layer_2" data-name="Layer 2" xmlns="http://www.w3.org/2000/svg" viewBox="0 0 657.16 712.77">
  <g id="Layer_1-2" data-name="Layer 1">
    <g>
      <path d="M529,257.19c1.7,2.99,3.61,3.78,5.97,2.44,1.1-.63,2.34-1.75,3.62-3.52l5.45-7.26c2.5-3.3,3.58-5.79,3.47-7.81-.15-4.29-4.27-11.52-7.88-13.84-1.68-1.13-4.38-1.47-8.48-1l-9.03.97c-2.18.2-3.77.69-4.87,1.32-2.36,1.34-2.65,3.39-.95,6.37l12.71,22.34Z"/>
      <path d="M595.82,356.39c63.76-36.94,78.26-114.34,41.4-178.19-36.87-63.85-111.15-90-175.02-53.25-.11-73.69-59.89-124.95-133.62-124.95s-133.51,51.26-133.62,124.95c-63.87-36.75-138.15-10.61-175.02,53.25S-2.42,319.45,61.34,356.39c-63.76,36.94-78.26,114.34-41.4,178.19,36.87,63.85,111.15,90,175.02,53.25.11,73.69,59.89,124.95,133.62,124.95s133.51-51.26,133.62-124.95c63.87,36.75,138.15,10.61,175.02-53.25,36.87-63.85,22.37-141.25-41.4-178.19ZM396.18,455.75c-.65,5.34-.98,10.68-.98,16.02-4.61-2.66-9.4-5.05-14.34-7.15-15.81,7.65-33.54,11.94-52.27,11.94s-36.47-4.29-52.27-11.94c-4.94,2.1-9.73,4.49-14.34,7.15,0-5.33-.33-10.68-.98-16.02-29.44-20.07-49.5-52.88-52.25-90.5-4.3-3.23-8.77-6.19-13.39-8.86,4.62-2.67,9.09-5.63,13.39-8.86,2.74-37.62,22.8-70.43,52.25-90.5.65-5.34.98-10.68.98-16.02,4.61,2.66,9.4,5.05,14.34,7.15,15.81-7.65,33.54-11.94,52.27-11.94s36.47,4.29,52.27,11.94c4.94-2.1,9.73-4.49,14.34-7.15,0,5.33.33,10.68.98,16.02,29.44,20.07,49.5,52.88,52.25,90.5,4.3,3.23,8.77,6.19,13.38,8.86-4.62,2.67-9.09,5.63-13.38,8.86-2.74,37.62-22.8,70.43-52.25,90.5ZM471.24,214.26c2.33,4.09,4.25,6.74,6.02,8.03,1.95,1.6,4.73,2.1,8.21,1.99l8.15-.68c2.02-.11,3.62-.6,5.03-1.41,1.26-.72,2.09-1.81,2.5-3.3.47-1.73.03-3.97-1.25-6.58l.94-.54c2.89,3.98,4.97,6.54,6.56,7.51,2.35,1.58,5.79,2.12,10.3,1.63l9.43-.99c1.77-.18,3.21-.58,4.15-1.12,1.1-.63,1.87-1.48,2.05-2.62.11-.9-.29-2.34-1.45-4.38l-6.54-11.48,31.46-17.9,7.43,13.06c4.03,7.08,5.61,12.42,4.78,16.44-.7,3.52-2.71,6.95-6.15,10.79l.36.63c5.05-1,9.03-.97,12.41.22,3.88,1.33,7.67,5.42,11.7,12.5l7.43,13.06-31.46,17.9-6.54-11.48c-1.16-2.04-2.19-3.12-3.02-3.48-1.08-.43-2.2-.21-3.3.42-.94.54-2.02,1.57-3.08,3l-5.67,7.6c-2.72,3.63-4.01,6.86-3.86,9.69.02,1.86,1.16,4.96,3.1,9.48l-.94.54c-1.59-2.43-3.29-3.96-5.02-4.43-1.48-.41-2.85-.25-4.11.46-1.42.81-2.65,1.93-3.78,3.61l-4.75,6.66c-1.87,2.94-2.86,5.58-2.48,8.08.2,2.18,1.5,5.19,3.82,9.28l7.07,12.43-31.78,18.08-4.12-7.24c-4.03-7.08-5.61-12.42-4.78-16.44.7-3.52,2.71-6.96,6.15-10.79l-.36-.63c-5.05,1-9.03.97-12.41-.22-3.88-1.33-7.67-5.42-11.7-12.5l-4.12-7.24,31.78-18.08,9.04,15.89c1.16,2.04,2.37,3.44,3.61,3.78,1.41.65,3.1.32,4.83-.67,1.42-.81,3.04-2.35,4.86-4.64l2.5-3.3c3.94-6.62,2.96-8.35-.63-14.64l-12.71-22.34c-3.67-6.45-4.57-8.02-12.27-8.01l-4.11.46c-2.9.4-5.05,1-6.47,1.81-1.73.98-2.88,2.26-3.04,3.81-.34,1.23.24,2.99,1.41,5.03l9.04,15.89-31.77,18.08-4.12-7.24c-4.03-7.08-5.61-12.42-4.78-16.44.7-3.52,2.71-6.95,6.15-10.79l-.36-.63c-5.05,1-9.03.97-12.41-.22-3.88-1.33-7.67-5.42-11.7-12.5l-4.12-7.24,31.77-18.08,7.07,12.43ZM273.43,74.4c.09,8.15.07,13.04.13,14.66l.72-.02c4.17-10.82,11.94-16.52,23.34-16.9,11.4-.38,20.06,4.04,25.61,13.09l.72-.02c5.29-9.77,11.68-13.61,24.52-14.04l22.25-.74,1.18,35.27-79.76,51.74c-1.59,1.14-2.46,2.26-2.42,3.52.06,1.81,1.18,2.68,3.17,2.61l59.32-2.34c5.61-.19,9.38-1.22,11.49-3.1,2.29-2.07,3.26-5.54,3.09-10.43-.05-1.63-.12-3.62-.38-5.96l6.69-.22,1.83,54.81-7.05.24c-.09-8.15-.07-13.04-.13-14.66l-.72.02c-4.35,10.83-12.67,16.54-24.79,16.95-12.48.42-21.5-3.99-27.06-13.04l-.72.02c-4.77,9.03-14.21,13.69-28.32,14.17l-15.56.52-1.22-36.54,79.06-51.17c1.6-.96,2.46-2.26,2.41-3.7-.05-1.63-1.17-2.5-3.16-2.43l-58.61,1.96c-5.61.19-9.56,1.22-11.49,3.1-2.29,2.07-3.26,5.54-3.09,10.43.07,1.99.11,3.44.33,4.52l-6.69.22-1.75-52.28,7.06-.24ZM49.85,274.55c3.84-7.19,7.51-11.38,11.35-12.81,3.35-1.29,7.33-1.42,12.4-.56l.34-.64c-3.54-3.74-5.64-7.11-6.44-10.62-.95-3.99.49-9.38,4.33-16.56l6.31-11.82,31.93,17.05-4.43,8.3c-1.11,2.08-.82,3.46.62,4.23.8.43,1.77.53,3.31.33l53.6-5.86c3.33-.48,5.63-1.71,6.74-3.79.94-1.76,1.07-3.53.14-5.26-.62-1.15-2.04-2.32-4.28-3.52l-8.94-4.77c-3.03-1.62-5.54-1.93-7.75-.85-1.97,1-4.13,3.13-6.17,6.56l-.96-.51c1.72-3.6,2.28-6.58,2.02-8.77-.34-2.44-1.99-4.34-5.02-5.96l-5.59-2.98c-6.87-3.67-9.65-2.69-13.74,4.98l-5.8,10.86-31.93-17.05,1.62-3.03c3.84-7.19,7.51-11.38,11.35-12.81,3.35-1.29,7.33-1.42,12.4-.56l.34-.64c-3.54-3.74-5.64-7.11-6.44-10.62-.95-3.99.49-9.38,4.33-16.56l4.26-7.98,31.93,17.05-8.61,16.13c-4.09,7.66-3.36,10.52,3.51,14.18l5.59,2.98c3.03,1.62,5.54,1.93,7.75.85,1.97-1,4.13-3.13,6.17-6.56l.96.51c-1.72,3.6-2.28,6.58-2.02,8.77.34,2.44,1.99,4.34,5.02,5.96l6.87,3.67c6.87,3.67,9.65,2.69,13.74-4.98l8.61-16.13,32.25,17.22-4.26,7.98c-3.84,7.19-7.51,11.38-11.35,12.81-3.35,1.29-7.33,1.42-12.4.56l-.34.64c3.54,3.74,5.64,7.11,6.44,10.62.95,3.99-.49,9.38-4.33,16.56l-6.39,11.98-32.25-17.22,4.43-8.3c1.11-2.08.82-3.46-.62-4.23-.8-.43-1.77-.53-3.31-.33l-53.52,6.1c-3.49.39-5.71,1.47-6.82,3.54-.94,1.76-.91,3.62.02,5.34.62,1.15,2.04,2.32,4.28,3.52l7.5,4.01c3.03,1.62,5.54,1.93,7.75.85,1.97-1,4.13-3.13,6.17-6.56l.96.51c-1.72,3.6-2.28,6.58-2.02,8.77.34,2.44,1.99,4.34,5.02,5.96l6.87,3.67c6.87,3.67,9.65,2.69,13.74-4.98l5.8-10.86,32.25,17.22-1.53,2.87c-3.84,7.19-7.51,11.38-11.35,12.81-3.35,1.29-7.33,1.42-12.4.56l-.34.64c3.54,3.74,5.64,7.11,6.44,10.62.95,3.99-.49,9.38-4.33,16.57l-4.35,8.14-32.25-17.22,8.61-16.13c4.09-7.66,3.36-10.52-3.51-14.18l-6.87-3.67c-3.03-1.62-5.54-1.93-7.75-.85-1.97,1-4.13,3.13-6.17,6.56l-.96-.51c1.72-3.6,2.28-6.58,2.02-8.77-.34-2.44-1.99-4.34-5.02-5.96l-5.59-2.98c-6.87-3.67-9.65-2.69-13.74,4.98l-8.61,16.13-31.93-17.05,4.35-8.14ZM182.02,501.58l-6.1,4.53c-2.76,2.05-4.11,4.18-4.09,6.64.06,2.21,1.06,5.07,3.29,8.38l-.87.65c-2.52-3.09-4.97-4.88-7.07-5.57-2.35-.74-4.78-.06-7.54,1.99l-4.94,3.67c-5.96,4.42-6.38,8.11-1.52,14.65l10.9,14.68-29.07,21.58-5.5-7.41c-4.85-6.54-7.07-11.66-6.73-15.75.27-3.58,1.85-7.23,4.8-11.45l-.43-.58c-4.9,1.6-9.1,2.02-12.5,1.39-4.52-.93-9.03-4.57-13.67-10.82l-15.1-20.35c-4.75-6.39-7.29-11.95-7.88-16.69-.52-5.25.88-10.35,4.1-15.44l-.43-.58c-2.76,2.05-6.58,5.11-11.56,9.03l-4.21-5.67,42-31.18,3.99,5.38c-.98.5-2.14,1.37-3.74,2.55-7.7,5.72-7.98,11.11-1.51,19.83l28.91,38.95c2.27,3.05,4.61,4.69,7.1,5.32,2.13.45,4.75-.59,7.94-2.96l3.78-2.81c5.67-4.21,5.86-6.38,1.22-12.63l-10.68-14.39c-2.48-3.34-4.93-5.13-7.36-5.36-2.17-.19-4.49.63-7.11,2.57-1.45,1.08-2.62,1.94-3.23,2.63l-3.67-4.94,27.76-20.61,3.67,4.94c-.83.39-2,1.26-3.6,2.44-2.62,1.94-4.07,3.93-4.52,6.06-.48,2.39.52,5.25,3,8.59l10.68,14.39c4.64,6.25,6.77,6.7,12.44,2.49l5.52-4.1c5.96-4.42,6.38-8.11,1.52-14.65l-28.91-38.95c-6.47-8.72-11.72-10.01-19.42-4.3-1.6,1.19-3.49,2.59-5.27,4.14l-3.99-5.38,44.04-32.69,4.21,5.67c-5.19,3.63-9.23,6.4-11.99,8.45l.43.58c5.8-1.6,11.08-1.47,15.96.55,4.37,1.94,8.95,5.98,13.69,12.38l15.1,20.35c4.64,6.25,6.82,11.62,6.4,16.21-.38,3.44-1.99,7.34-4.94,11.56l.43.58c4.9-1.6,8.84-2.06,12.35-1.28,4.01.85,8.27,4.46,13.12,11l5.5,7.41-29.36,21.79-10.9-14.68c-4.85-6.54-8.51-7.21-14.47-2.79ZM353.45,640.7c-8.15.03-13.58-1.22-16.67-3.92-2.72-2.34-4.73-5.78-6.37-10.66h-.72c-1.61,4.9-3.59,8.34-6.3,10.7-3.07,2.73-8.49,4.01-16.64,4.04l-9.23.03-.12-36.2,18.28-.06c8.69-.03,10.85-2.03,10.83-9.81l-.02-6.33c-.01-3.44-.93-5.79-2.92-7.23-1.81-1.26-4.71-2.16-8.7-2.32v-1.09c3.98-.2,6.87-1.11,8.68-2.38,1.99-1.45,2.88-3.81,2.87-7.25l-.03-7.78c-.03-7.78-2.21-9.77-10.89-9.74l-18.28.06-.13-36.56,9.23-.03c8.15-.03,13.58,1.22,16.67,3.92,2.72,2.34,4.73,5.78,6.37,10.66h.72c1.61-4.9,3.59-8.34,6.3-10.7,3.07-2.73,8.49-4.01,16.64-4.04l9.23-.03.13,36.56-18.28.06c-8.69.03-10.85,2.03-10.83,9.81l.03,7.78c.01,3.44.93,5.79,2.92,7.23,1.81,1.26,4.71,2.16,8.7,2.32v1.09c-3.98.2-6.87,1.11-8.68,2.38-1.99,1.45-2.88,3.81-2.87,7.25l.02,6.33c.03,7.78,2.21,9.77,10.89,9.74l18.28-.06.12,36.2-9.23.03ZM590.21,479.07c-4.71,6.65-8.88,10.34-12.88,11.29-3.49.86-7.45.49-12.38-1l-.42.59c3.05,4.15,4.74,8.02,5.2,11.45.52,4.58-1.43,9.85-5.93,16.2l-14.33,20.23c-6.49,9.16-12.08,15.17-16.83,17.8-4.95,2.92-10.36,3.98-16.42,3.45-6.21-.63-12.02-2.75-17.19-6.41-5.46-3.87-9.42-8-12-12.49-3.3-5.67-4.44-11.58-3.52-17.58.88-6.25,4.3-13.59,10.06-21.71l21.66-30.57c2.3-3.25,3.32-5.63,3.21-7.04-.15-1.66-1.76-3.46-4.71-5.56l-4.58-3.24c-6.35-4.5-9.23-3.88-14.25,3.21l-10.57,14.92-29.83-21.13,5.34-7.53c4.71-6.65,8.88-10.34,12.88-11.29,3.49-.86,7.45-.49,12.38,1l.42-.59c-3.05-4.15-4.7-7.77-5.05-11.34-.44-4.08,1.67-9.24,6.38-15.89l5.34-7.53,29.83,21.14-10.57,14.92c-5.02,7.09-4.65,10.01,1.7,14.51l6.35,4.5c2.81,1.99,5.25,2.61,7.58,1.82,2.08-.75,4.49-2.58,6.94-5.73l.89.63c-2.15,3.35-3.09,6.24-3.1,8.45.03,2.46,1.43,4.56,4.23,6.55l5.17,3.66c6.35,4.5,9.23,3.88,14.25-3.21l10.57-14.92,29.54,20.93-5.34,7.53Z"/>
      <path d="M537.81,474.77l-5.17-3.66c-2.95-2.09-5.19-3.01-6.81-2.6-1.37.36-3.27,2.12-5.58,5.37l-21.87,30.87c-3.35,4.73-4.87,8.75-4.6,11.82.2,3.47,1.98,6.28,5.23,8.58,3.25,2.3,6.49,3.05,9.83,2.09,2.98-.77,6.28-3.54,9.63-8.26l21.03-29.69c5.02-7.09,4.65-10.01-1.7-14.51Z"/>
    </g>
  </g>
</svg>